<svg width="93" height="94" viewBox="0 0 93 94" fill="none" xmlns="http://www.w3.org/2000/svg">
<path d="M46.5 91.3623C71.0767 91.3623 91 71.439 91 46.8623C91 22.2856 71.0767 2.3623 46.5 2.3623C21.9233 2.3623 2 22.2856 2 46.8623C2 71.439 21.9233 91.3623 46.5 91.3623Z" stroke="#FCC344" stroke-width="4" stroke-miterlimit="10"/>
<path d="M46.5007 76.5296C62.8851 76.5296 76.1673 63.2474 76.1673 46.863C76.1673 30.4785 62.8851 17.1963 46.5007 17.1963C30.1162 17.1963 16.834 30.4785 16.834 46.863C16.834 63.2474 30.1162 76.5296 46.5007 76.5296Z" stroke="#FCC344" stroke-width="4" stroke-miterlimit="10"/>
<path d="M46.4993 61.695C54.6916 61.695 61.3327 55.0539 61.3327 46.8617C61.3327 38.6694 54.6916 32.0283 46.4993 32.0283C38.3071 32.0283 31.666 38.6694 31.666 46.8617C31.666 55.0539 38.3071 61.695 46.4993 61.695Z" stroke="#FCC344" stroke-width="4" stroke-miterlimit="10"/>
</svg>
