<svg width="93" height="94" viewBox="0 0 93 94" fill="none" xmlns="http://www.w3.org/2000/svg">
<path d="M13.125 2.3623H2V13.4873H13.125V2.3623Z" stroke="#FCC344" stroke-width="4" stroke-miterlimit="10"/>
<path d="M13.125 13.4873H2V24.6123H13.125V13.4873Z" stroke="#FCC344" stroke-width="4" stroke-miterlimit="10"/>
<path d="M35.375 2.3623H24.25V13.4873H35.375V2.3623Z" stroke="#FCC344" stroke-width="4" stroke-miterlimit="10"/>
<path d="M46.5 2.3623H35.375V13.4873H46.5V2.3623Z" stroke="#FCC344" stroke-width="4" stroke-miterlimit="10"/>
<path d="M35.375 13.4873H24.25V24.6123H35.375V13.4873Z" stroke="#FCC344" stroke-width="4" stroke-miterlimit="10"/>
<path d="M13.125 24.6123H2V35.7373H13.125V24.6123Z" stroke="#FCC344" stroke-width="4" stroke-miterlimit="10"/>
<path d="M13.125 35.7373H2V46.8623H13.125V35.7373Z" stroke="#FCC344" stroke-width="4" stroke-miterlimit="10"/>
<path d="M35.375 24.6123H24.25V35.7373H35.375V24.6123Z" stroke="#FCC344" stroke-width="4" stroke-miterlimit="10"/>
<path d="M35.375 35.7373H24.25V46.8623H35.375V35.7373Z" stroke="#FCC344" stroke-width="4" stroke-miterlimit="10"/>
<path d="M57.625 2.3623H46.5V13.4873H57.625V2.3623Z" stroke="#FCC344" stroke-width="4" stroke-miterlimit="10"/>
<path d="M68.75 2.3623H57.625V13.4873H68.75V2.3623Z" stroke="#FCC344" stroke-width="4" stroke-miterlimit="10"/>
<path d="M79.875 2.3623H68.75V13.4873H79.875V2.3623Z" stroke="#FCC344" stroke-width="4" stroke-miterlimit="10"/>
<path d="M91 2.3623H79.875V13.4873H91V2.3623Z" stroke="#FCC344" stroke-width="4" stroke-miterlimit="10"/>
<path d="M91 13.4873H79.875V24.6123H91V13.4873Z" stroke="#FCC344" stroke-width="4" stroke-miterlimit="10"/>
<path d="M57.625 24.6123H46.5V35.7373H57.625V24.6123Z" stroke="#FCC344" stroke-width="4" stroke-miterlimit="10"/>
<path d="M68.75 24.6123H57.625V35.7373H68.75V24.6123Z" stroke="#FCC344" stroke-width="4" stroke-miterlimit="10"/>
<path d="M68.75 35.7373H57.625V46.8623H68.75V35.7373Z" stroke="#FCC344" stroke-width="4" stroke-miterlimit="10"/>
<path d="M91 24.6123H79.875V35.7373H91V24.6123Z" stroke="#FCC344" stroke-width="4" stroke-miterlimit="10"/>
<path d="M91 35.7373H79.875V46.8623H91V35.7373Z" stroke="#FCC344" stroke-width="4" stroke-miterlimit="10"/>
<path d="M13.125 46.8623H2V57.9873H13.125V46.8623Z" stroke="#FCC344" stroke-width="4" stroke-miterlimit="10"/>
<path d="M13.125 57.9873H2V69.1123H13.125V57.9873Z" stroke="#FCC344" stroke-width="4" stroke-miterlimit="10"/>
<path d="M35.375 46.8623H24.25V57.9873H35.375V46.8623Z" stroke="#FCC344" stroke-width="4" stroke-miterlimit="10"/>
<path d="M35.375 57.9873H24.25V69.1123H35.375V57.9873Z" stroke="#FCC344" stroke-width="4" stroke-miterlimit="10"/>
<path d="M46.5 57.9873H35.375V69.1123H46.5V57.9873Z" stroke="#FCC344" stroke-width="4" stroke-miterlimit="10"/>
<path d="M13.125 69.1123H2V80.2373H13.125V69.1123Z" stroke="#FCC344" stroke-width="4" stroke-miterlimit="10"/>
<path d="M13.125 80.2373H2V91.3623H13.125V80.2373Z" stroke="#FCC344" stroke-width="4" stroke-miterlimit="10"/>
<path d="M24.25 80.2373H13.125V91.3623H24.25V80.2373Z" stroke="#FCC344" stroke-width="4" stroke-miterlimit="10"/>
<path d="M35.375 80.2373H24.25V91.3623H35.375V80.2373Z" stroke="#FCC344" stroke-width="4" stroke-miterlimit="10"/>
<path d="M46.5 80.2373H35.375V91.3623H46.5V80.2373Z" stroke="#FCC344" stroke-width="4" stroke-miterlimit="10"/>
<path d="M68.75 46.8623H57.625V57.9873H68.75V46.8623Z" stroke="#FCC344" stroke-width="4" stroke-miterlimit="10"/>
<path d="M57.625 57.9873H46.5V69.1123H57.625V57.9873Z" stroke="#FCC344" stroke-width="4" stroke-miterlimit="10"/>
<path d="M68.75 57.9873H57.625V69.1123H68.75V57.9873Z" stroke="#FCC344" stroke-width="4" stroke-miterlimit="10"/>
<path d="M91 46.8623H79.875V57.9873H91V46.8623Z" stroke="#FCC344" stroke-width="4" stroke-miterlimit="10"/>
<path d="M91 57.9873H79.875V69.1123H91V57.9873Z" stroke="#FCC344" stroke-width="4" stroke-miterlimit="10"/>
<path d="M57.625 80.2373H46.5V91.3623H57.625V80.2373Z" stroke="#FCC344" stroke-width="4" stroke-miterlimit="10"/>
<path d="M68.75 80.2373H57.625V91.3623H68.75V80.2373Z" stroke="#FCC344" stroke-width="4" stroke-miterlimit="10"/>
<path d="M91 69.1123H79.875V80.2373H91V69.1123Z" stroke="#FCC344" stroke-width="4" stroke-miterlimit="10"/>
<path d="M79.875 80.2373H68.75V91.3623H79.875V80.2373Z" stroke="#FCC344" stroke-width="4" stroke-miterlimit="10"/>
<path d="M91 80.2373H79.875V91.3623H91V80.2373Z" stroke="#FCC344" stroke-width="4" stroke-miterlimit="10"/>
</svg>
