<svg width="93" height="94" viewBox="0 0 93 94" fill="none" xmlns="http://www.w3.org/2000/svg">
<path d="M82.9874 59.1907H18.6592C22.2687 53.1584 27.0648 46.9778 32.8499 41.2422C52.6774 21.4147 76.8561 13.3552 86.7451 23.2937C93.7664 30.3149 91.7886 44.456 82.9874 59.1907Z" stroke="#FCC344" stroke-width="4" stroke-miterlimit="10"/>
<path d="M10.0056 34.5176H74.3338C70.7243 40.5499 65.9282 46.7309 60.1431 52.4666C40.3156 72.2941 16.1369 80.3535 6.24786 70.4151C-0.773351 63.4433 1.20438 49.2522 10.0056 34.5176Z" stroke="#FCC344" stroke-width="4" stroke-miterlimit="10"/>
<path d="M58.8579 10.388V74.7165C52.8256 71.107 46.6449 66.3107 40.9093 60.5256C21.0818 40.6981 13.0222 16.5194 22.9607 6.6304C29.9324 -0.440259 44.1232 1.5868 58.8579 10.388Z" stroke="#FCC344" stroke-width="4" stroke-miterlimit="10"/>
<path d="M34.1348 83.3202V18.9922C40.1671 22.6017 46.3477 27.398 52.0834 33.183C71.9109 53.0106 79.9705 77.1892 70.032 87.0783C63.0602 94.1489 48.8694 92.1708 34.1348 83.3202Z" stroke="#FCC344" stroke-width="4" stroke-miterlimit="10"/>
</svg>
