<svg width="658" height="568" viewBox="0 0 658 568" fill="none" xmlns="http://www.w3.org/2000/svg">
<path d="M329 -8L331.583 271.718L363.39 -6.19769L336.72 272.258L397.403 -0.810547L341.773 273.332L430.667 8.10242L346.685 274.928L462.816 20.4435L351.404 277.029L493.5 36.0776L355.878 279.612L522.381 54.8334L360.057 282.648L549.144 76.5054L363.896 286.104L573.495 100.856L367.352 289.943L595.167 127.619L370.388 294.122L613.922 156.5L372.971 298.596L629.556 187.184L375.072 303.315L641.898 219.333L376.668 308.227L650.811 252.597L377.742 313.28L656.198 286.61L378.282 318.417L658 321L378.282 323.583L656.198 355.39L377.742 328.72L650.811 389.403L376.668 333.773L641.898 422.667L375.072 338.685L629.556 454.816L372.971 343.404L613.922 485.5L370.388 347.878L595.167 514.381L367.352 352.057L573.495 541.144L363.896 355.896L549.144 565.495L360.057 359.352L522.381 587.167L355.878 362.388L493.5 605.922L351.404 364.971L462.816 621.556L346.685 367.072L430.667 633.898L341.773 368.668L397.403 642.811L336.72 369.742L363.39 648.198L331.583 370.282L329 650L326.417 370.282L294.61 648.198L321.28 369.742L260.597 642.811L316.227 368.668L227.333 633.898L311.315 367.072L195.184 621.556L306.596 364.971L164.5 605.922L302.122 362.388L135.619 587.167L297.943 359.352L108.856 565.495L294.104 355.896L84.5054 541.144L290.648 352.057L62.8334 514.381L287.612 347.878L44.0776 485.5L285.029 343.404L28.4435 454.816L282.928 338.685L16.1024 422.667L281.332 333.773L7.18945 389.403L280.258 328.72L1.80231 355.39L279.718 323.583L0 321L279.718 318.417L1.80231 286.61L280.258 313.28L7.18945 252.597L281.332 308.227L16.1024 219.333L282.928 303.315L28.4435 187.184L285.029 298.596L44.0776 156.5L287.612 294.122L62.8334 127.619L290.648 289.943L84.5054 100.856L294.104 286.104L108.856 76.5054L297.943 282.648L135.619 54.8334L302.122 279.612L164.5 36.0776L306.596 277.029L195.184 20.4435L311.315 274.928L227.333 8.10242L316.227 273.332L260.597 -0.810547L321.28 272.258L294.61 -6.19769L326.417 271.718L329 -8Z" fill="white" fill-opacity="0.4"/>
</svg>
