<svg width="74" height="16" viewBox="0 0 74 16" fill="none" xmlns="http://www.w3.org/2000/svg">
<path d="M8.65368 2.96472C8.5597 2.73037 8.39765 2.52951 8.18841 2.38804C7.97917 2.24657 7.73233 2.17096 7.4797 2.17096C7.22708 2.17096 6.98024 2.24657 6.771 2.38804C6.56176 2.52951 6.39971 2.73037 6.30573 2.96472L5.24068 5.56522L5.19227 5.6015L2.39047 5.80712C2.22504 5.81821 2.06344 5.86185 1.91493 5.93554C1.76643 6.00922 1.63396 6.11151 1.52512 6.23651C1.32367 6.4681 1.21202 6.76422 1.21045 7.07109C1.21038 7.25578 1.25101 7.43823 1.32945 7.60546C1.40789 7.7727 1.52221 7.92062 1.6643 8.03871L3.81255 9.85301V9.89535L3.159 12.647C3.13532 12.7502 3.12314 12.8557 3.12269 12.9615C3.11994 13.13 3.15243 13.2971 3.21808 13.4523C3.28373 13.6075 3.38109 13.7472 3.50393 13.8626C3.70675 14.0611 3.97076 14.1853 4.25309 14.2149C4.53541 14.2446 4.81947 14.1779 5.05914 14.0259L7.4797 12.5442H7.54022L9.90027 14.0259C10.1406 14.1772 10.425 14.2428 10.7074 14.212C10.9897 14.1813 11.2534 14.056 11.4555 13.8566C11.5783 13.7412 11.6757 13.6014 11.7413 13.4463C11.807 13.2911 11.8395 13.1239 11.8367 12.9555C11.8366 12.8516 11.8244 12.7481 11.8004 12.647L11.1105 9.9014V9.85906L13.2588 8.04476C13.3891 7.93606 13.4962 7.80239 13.574 7.65162C13.6517 7.50086 13.6984 7.33606 13.7114 7.16696C13.7244 6.99785 13.7033 6.82786 13.6495 6.66702C13.5957 6.50617 13.5101 6.35774 13.398 6.23046C13.2891 6.10546 13.1567 6.00318 13.0082 5.92949C12.8597 5.8558 12.6981 5.81216 12.5326 5.80108L9.73083 5.59546L9.68242 5.55917L8.61737 2.95867L8.65368 2.96472ZM10.3299 8.92772C10.1899 9.0472 10.0773 9.19554 10.0001 9.36256C9.92276 9.52958 9.88253 9.71133 9.88211 9.89535C9.88186 9.99724 9.89405 10.0988 9.91842 10.1977L10.5841 12.9071V12.9373H10.5357H10.5054L8.12115 11.4556C7.91864 11.3329 7.68631 11.2679 7.44945 11.2679C7.21258 11.2679 6.98025 11.3329 6.77774 11.4556L4.454 12.9978H4.40559V12.9676L5.0773 10.234C5.10167 10.1351 5.11386 10.0335 5.1136 9.93163C5.11319 9.74762 5.07296 9.56587 4.99566 9.39885C4.91837 9.23183 4.80584 9.08349 4.6658 8.96401L2.51755 7.14971V7.10737V7.06504H2.55386L5.36171 6.85942C5.59672 6.84168 5.8221 6.75868 6.01242 6.61977C6.20275 6.48085 6.35045 6.29155 6.43886 6.07322L7.42524 3.44248V3.41225H7.49786V3.44248L8.56291 6.04298C8.65132 6.26131 8.79902 6.45061 8.98934 6.58953C9.17967 6.72844 9.40505 6.81145 9.64005 6.82918L12.4479 7.0348H12.4842V7.07713V7.11947L10.3299 8.92772Z" fill="#F2CB40"/>
<path d="M23.5892 2.96472C23.4907 2.73037 23.321 2.52951 23.1017 2.38804C22.8825 2.24657 22.624 2.17096 22.3593 2.17096C22.0946 2.17096 21.836 2.24657 21.6168 2.38804C21.3976 2.52951 21.2279 2.73037 21.1294 2.96472L20.0137 5.56522L19.9629 5.6015L17.0277 5.80712C16.8544 5.81821 16.6851 5.86185 16.5295 5.93554C16.374 6.00922 16.2352 6.11151 16.1212 6.23651C15.9101 6.4681 15.7932 6.76422 15.7915 7.07109C15.7914 7.25578 15.834 7.43823 15.9162 7.60546C15.9983 7.7727 16.1181 7.92062 16.267 8.03871L18.5175 9.85301V9.89535L17.8328 12.647C17.808 12.7502 17.7953 12.8557 17.7948 12.9615C17.7919 13.13 17.826 13.2971 17.8947 13.4523C17.9635 13.6075 18.0655 13.7472 18.1942 13.8626C18.4067 14.0611 18.6833 14.1853 18.979 14.2149C19.2748 14.2446 19.5724 14.1779 19.8235 14.0259L22.3593 12.5442H22.4227L24.8951 14.0259C25.1469 14.1772 25.4449 14.2428 25.7407 14.212C26.0365 14.1813 26.3127 14.056 26.5244 13.8566C26.6531 13.7412 26.7551 13.6014 26.8239 13.4463C26.8926 13.2911 26.9267 13.1239 26.9238 12.9555C26.9237 12.8516 26.9109 12.7481 26.8857 12.647L26.163 9.9014V9.85906L28.4136 8.04476C28.5501 7.93606 28.6623 7.80239 28.7438 7.65162C28.8252 7.50086 28.8742 7.33606 28.8878 7.16696C28.9013 6.99785 28.8793 6.82786 28.8229 6.66702C28.7665 6.50617 28.6769 6.35774 28.5594 6.23046C28.4454 6.10546 28.3066 6.00318 28.151 5.92949C27.9954 5.8558 27.8261 5.81216 27.6528 5.80108L24.7176 5.59546L24.6669 5.55917L23.5511 2.95867L23.5892 2.96472ZM25.3452 8.92772C25.1985 9.0472 25.0806 9.19554 24.9997 9.36256C24.9187 9.52958 24.8765 9.71133 24.8761 9.89535C24.8758 9.99724 24.8886 10.0988 24.9141 10.1977L25.6115 12.9071V12.9373H25.5608H25.5291L23.0313 11.4556C22.8191 11.3329 22.5757 11.2679 22.3276 11.2679C22.0795 11.2679 21.8361 11.3329 21.6239 11.4556L19.1895 12.9978H19.1388V12.9676L19.8425 10.234C19.868 10.1351 19.8808 10.0335 19.8805 9.93163C19.8801 9.74762 19.8379 9.56587 19.757 9.39885C19.676 9.23183 19.5581 9.08349 19.4114 8.96401L17.1609 7.14971V7.10737V7.06504H17.1989L20.1404 6.85942C20.3866 6.84168 20.6228 6.75868 20.8221 6.61977C21.0215 6.48085 21.1763 6.29155 21.2689 6.07322L22.3022 3.44248V3.41225H22.3783V3.44248L23.4941 6.04298C23.5867 6.26131 23.7414 6.45061 23.9408 6.58953C24.1402 6.72844 24.3763 6.81145 24.6225 6.82918L27.5641 7.0348H27.6021V7.07713V7.11947L25.3452 8.92772Z" fill="#F2CB40"/>
<path d="M38.392 2.96472C38.298 2.73037 38.1359 2.52951 37.9267 2.38804C37.7174 2.24657 37.4706 2.17096 37.218 2.17096C36.9654 2.17096 36.7185 2.24657 36.5093 2.38804C36.3 2.52951 36.138 2.73037 36.044 2.96472L34.979 5.56522L34.9306 5.6015L32.1288 5.80712C31.9633 5.81821 31.8017 5.86185 31.6532 5.93554C31.5047 6.00922 31.3722 6.11151 31.2634 6.23651C31.062 6.4681 30.9503 6.76422 30.9487 7.07109C30.9487 7.25578 30.9893 7.43823 31.0677 7.60546C31.1462 7.7727 31.2605 7.92062 31.4026 8.03871L33.5508 9.85301V9.89535L32.8973 12.647C32.8736 12.7502 32.8614 12.8557 32.861 12.9615C32.8582 13.13 32.8907 13.2971 32.9564 13.4523C33.022 13.6075 33.1194 13.7472 33.2422 13.8626C33.445 14.0611 33.709 14.1853 33.9914 14.2149C34.2737 14.2446 34.5578 14.1779 34.7974 14.0259L37.218 12.5442H37.2785L39.6385 14.0259C39.8789 14.1772 40.1633 14.2428 40.4457 14.212C40.728 14.1813 40.9917 14.056 41.1938 13.8566C41.3166 13.7412 41.414 13.6014 41.4796 13.4463C41.5453 13.2911 41.5777 13.1239 41.575 12.9555C41.5749 12.8516 41.5627 12.7481 41.5387 12.647L40.8488 9.9014V9.85906L42.9971 8.04476C43.1273 7.93606 43.2345 7.80239 43.3123 7.65162C43.39 7.50086 43.4367 7.33606 43.4497 7.16696C43.4627 6.99785 43.4416 6.82786 43.3878 6.66702C43.334 6.50617 43.2484 6.35774 43.1363 6.23046C43.0274 6.10546 42.895 6.00318 42.7464 5.92949C42.5979 5.8558 42.4363 5.81216 42.2709 5.80108L39.4691 5.59546L39.4207 5.55917L38.3556 2.95867L38.392 2.96472ZM40.0682 8.92772C39.9282 9.0472 39.8156 9.19554 39.7383 9.36256C39.661 9.52958 39.6208 9.71133 39.6204 9.89535C39.6201 9.99724 39.6323 10.0988 39.6567 10.1977L40.3224 12.9071V12.9373H40.2739H40.2437L37.8594 11.4556C37.6569 11.3329 37.4246 11.2679 37.1877 11.2679C36.9509 11.2679 36.7185 11.3329 36.516 11.4556L34.1923 12.9978H34.1439V12.9676L34.8156 10.234C34.8399 10.1351 34.8521 10.0335 34.8519 9.93163C34.8515 9.74762 34.8112 9.56587 34.7339 9.39885C34.6566 9.23183 34.5441 9.08349 34.4041 8.96401L32.2558 7.14971V7.10737V7.06504H32.2921L35.1 6.85942C35.335 6.84168 35.5604 6.75868 35.7507 6.61977C35.941 6.48085 36.0887 6.29155 36.1771 6.07322L37.1635 3.44248V3.41225H37.2361V3.44248L38.3012 6.04298C38.3896 6.26131 38.5373 6.45061 38.7276 6.58953C38.9179 6.72844 39.1433 6.81145 39.3783 6.82918L42.1862 7.0348H42.2225V7.07713V7.11947L40.0682 8.92772Z" fill="#F2CB40"/>
<path d="M53.3275 2.96472C53.229 2.73037 53.0592 2.52951 52.84 2.38804C52.6208 2.24657 52.3622 2.17096 52.0976 2.17096C51.8329 2.17096 51.5743 2.24657 51.3551 2.38804C51.1359 2.52951 50.9662 2.73037 50.8677 2.96472L49.7519 5.56522L49.7012 5.6015L46.766 5.80712C46.5927 5.81821 46.4234 5.86185 46.2678 5.93554C46.1122 6.00922 45.9735 6.11151 45.8594 6.23651C45.6484 6.4681 45.5314 6.76422 45.5298 7.07109C45.5297 7.25578 45.5723 7.43823 45.6544 7.60546C45.7366 7.7727 45.8564 7.92062 46.0053 8.03871L48.2558 9.85301V9.89535L47.5711 12.647C47.5463 12.7502 47.5336 12.8557 47.5331 12.9615C47.5302 13.13 47.5642 13.2971 47.633 13.4523C47.7018 13.6075 47.8038 13.7472 47.9325 13.8626C48.145 14.0611 48.4215 14.1853 48.7173 14.2149C49.0131 14.2446 49.3107 14.1779 49.5618 14.0259L52.0976 12.5442H52.161L54.6334 14.0259C54.8852 14.1772 55.1832 14.2428 55.479 14.212C55.7748 14.1813 56.051 14.056 56.2627 13.8566C56.3914 13.7412 56.4934 13.6014 56.5621 13.4463C56.6309 13.2911 56.665 13.1239 56.6621 12.9555C56.6619 12.8516 56.6492 12.7481 56.624 12.647L55.9013 9.9014V9.85906L58.1519 8.04476C58.2883 7.93606 58.4006 7.80239 58.4821 7.65162C58.5635 7.50086 58.6124 7.33606 58.626 7.16696C58.6396 6.99785 58.6176 6.82786 58.5612 6.66702C58.5048 6.50617 58.4152 6.35774 58.2977 6.23046C58.1837 6.10546 58.0449 6.00318 57.8893 5.92949C57.7337 5.8558 57.5644 5.81216 57.3911 5.80108L54.4559 5.59546L54.4052 5.55917L53.2894 2.95867L53.3275 2.96472ZM55.0835 8.92772C54.9368 9.0472 54.8189 9.19554 54.7379 9.36256C54.657 9.52958 54.6148 9.71133 54.6144 9.89535C54.6141 9.99724 54.6269 10.0988 54.6524 10.1977L55.3498 12.9071V12.9373H55.2991H55.2674L52.7696 11.4556C52.5574 11.3329 52.314 11.2679 52.0659 11.2679C51.8177 11.2679 51.5743 11.3329 51.3622 11.4556L48.9278 12.9978H48.8771V12.9676L49.5808 10.234C49.6063 10.1351 49.6191 10.0335 49.6188 9.93163C49.6184 9.74762 49.5762 9.56587 49.4952 9.39885C49.4143 9.23183 49.2964 9.08349 49.1497 8.96401L46.8991 7.14971V7.10737V7.06504H46.9372L49.8787 6.85942C50.1249 6.84168 50.361 6.75868 50.5604 6.61977C50.7598 6.48085 50.9145 6.29155 51.0072 6.07322L52.0405 3.44248V3.41225H52.1166V3.44248L53.2324 6.04298C53.325 6.26131 53.4797 6.45061 53.6791 6.58953C53.8785 6.72844 54.1146 6.81145 54.3608 6.82918L57.3024 7.0348H57.3404V7.07713V7.11947L55.0835 8.92772Z" fill="#F2CB40"/>
<path d="M68.1302 2.96472C68.0363 2.73037 67.8742 2.52951 67.665 2.38804C67.4557 2.24657 67.2089 2.17096 66.9563 2.17096C66.7036 2.17096 66.4568 2.24657 66.2476 2.38804C66.0383 2.52951 65.8763 2.73037 65.7823 2.96472L64.7172 5.56522L64.6688 5.6015L61.867 5.80712C61.7016 5.81821 61.54 5.86185 61.3915 5.93554C61.243 6.00922 61.1105 6.11151 61.0017 6.23651C60.8002 6.4681 60.6886 6.76422 60.687 7.07109C60.6869 7.25578 60.7276 7.43823 60.806 7.60546C60.8844 7.7727 60.9988 7.92062 61.1409 8.03871L63.2891 9.85301V9.89535L62.6356 12.647C62.6119 12.7502 62.5997 12.8557 62.5993 12.9615C62.5965 13.13 62.629 13.2971 62.6946 13.4523C62.7603 13.6075 62.8577 13.7472 62.9805 13.8626C63.1833 14.0611 63.4473 14.1853 63.7296 14.2149C64.012 14.2446 64.296 14.1779 64.5357 14.0259L66.9563 12.5442H67.0168L69.3768 14.0259C69.6172 14.1772 69.9016 14.2428 70.184 14.212C70.4663 14.1813 70.7299 14.056 70.932 13.8566C71.0549 13.7412 71.1522 13.6014 71.2179 13.4463C71.2835 13.2911 71.316 13.1239 71.3133 12.9555C71.3132 12.8516 71.301 12.7481 71.277 12.647L70.5871 9.9014V9.85906L72.7354 8.04476C72.8656 7.93606 72.9728 7.80239 73.0505 7.65162C73.1283 7.50086 73.175 7.33606 73.188 7.16696C73.2009 6.99785 73.1799 6.82786 73.1261 6.66702C73.0722 6.50617 72.9867 6.35774 72.8745 6.23046C72.7657 6.10546 72.6332 6.00318 72.4847 5.92949C72.3362 5.8558 72.1746 5.81216 72.0092 5.80108L69.2074 5.59546L69.159 5.55917L68.0939 2.95867L68.1302 2.96472ZM69.8065 8.92772C69.6664 9.0472 69.5539 9.19554 69.4766 9.36256C69.3993 9.52958 69.3591 9.71133 69.3587 9.89535C69.3584 9.99724 69.3706 10.0988 69.395 10.1977L70.0606 12.9071V12.9373H70.0122H69.982L67.5977 11.4556C67.3952 11.3329 67.1629 11.2679 66.926 11.2679C66.6891 11.2679 66.4568 11.3329 66.2543 11.4556L63.9306 12.9978H63.8822V12.9676L64.5539 10.234C64.5782 10.1351 64.5904 10.0335 64.5902 9.93163C64.5898 9.74762 64.5495 9.56587 64.4722 9.39885C64.3949 9.23183 64.2824 9.08349 64.1424 8.96401L61.9941 7.14971V7.10737V7.06504H62.0304L64.8383 6.85942C65.0733 6.84168 65.2987 6.75868 65.489 6.61977C65.6793 6.48085 65.827 6.29155 65.9154 6.07322L66.9018 3.44248V3.41225H66.9744V3.44248L68.0395 6.04298C68.1279 6.26131 68.2756 6.45061 68.4659 6.58953C68.6562 6.72844 68.8816 6.81145 69.1166 6.82918L71.9245 7.0348H71.9608V7.07713V7.11947L69.8065 8.92772Z" fill="#CBCBCB"/>
</svg>
